HIERARCHY
ROOT Hips
{
	OFFSET -0.001795 -0.223333 0.028219
	CHANNELS 6 Xposition Yposition Zposition Zrotation Yrotation Xrotation 
	JOINT LeftUpLeg
	{
		OFFSET 0.069520 -0.091406 -0.006815
		CHANNELS 3 Zrotation Yrotation Xrotation
		JOINT LeftLeg
		{
			OFFSET 0.034277 -0.375199 -0.004496
			CHANNELS 3 Zrotation Yrotation Xrotation
			JOINT LeftFoot
			{
				OFFSET -0.013596 -0.397961 -0.043693
				CHANNELS 3 Zrotation Yrotation Xrotation
				JOINT LeftToe
				{
					OFFSET 0.026358 -0.055791 0.119288
					CHANNELS 3 Zrotation Yrotation Xrotation
					End Site
					{
						OFFSET 0.000000 0.000000 0.000000
					}
				}
			}
		}
	}
	JOINT RightUpLeg
	{
		OFFSET -0.067670 -0.090522 -0.004320
		CHANNELS 3 Zrotation Yrotation Xrotation
		JOINT RightLeg
		{
			OFFSET -0.038290 -0.382569 -0.008850
			CHANNELS 3 Zrotation Yrotation Xrotation
			JOINT RightFoot
			{
				OFFSET 0.015774 -0.398415 -0.042312
				CHANNELS 3 Zrotation Yrotation Xrotation
				JOINT RightToe
				{
					OFFSET -0.025372 -0.048144 0.123348
					CHANNELS 3 Zrotation Yrotation Xrotation
					End Site
					{
						OFFSET 0.000000 0.000000 0.000000
					}
				}
			}
		}
	}
	JOINT Spine
	{
		OFFSET -0.002533 0.108963 -0.026696
		CHANNELS 3 Zrotation Yrotation Xrotation
		JOINT Spine1
		{
			OFFSET 0.005487 0.135180 0.001092
			CHANNELS 3 Zrotation Yrotation Xrotation
			JOINT Spine2
			{
				OFFSET 0.001457 0.052922 0.025425
				CHANNELS 3 Zrotation Yrotation Xrotation
				JOINT Neck
				{
					OFFSET -0.002778 0.213870 -0.042857
					CHANNELS 3 Zrotation Yrotation Xrotation
					JOINT Head
					{
						OFFSET 0.005152 0.064970 0.051349
						CHANNELS 3 Zrotation Yrotation Xrotation
						End Site
						{
							OFFSET 0.000000 0.000000 0.000000
						}
					}
				}
				JOINT LeftShoulder
				{
					OFFSET 0.078845 0.121749 -0.034090
					CHANNELS 3 Zrotation Yrotation Xrotation
					JOINT LeftArm
					{
						OFFSET 0.090977 0.030469 -0.008868
						CHANNELS 3 Zrotation Yrotation Xrotation
						JOINT LeftForeArm
						{
							OFFSET 0.259612 -0.012772 -0.027456
							CHANNELS 3 Zrotation Yrotation Xrotation
							JOINT LeftHand
							{
								OFFSET 0.249234 0.008986 -0.001171
								CHANNELS 3 Zrotation Yrotation Xrotation
								End Site
								{
									OFFSET 0.000000 0.000000 0.000000
								}
							}
						}
					}
				}
				JOINT RightShoulder
				{
					OFFSET -0.081759 0.118833 -0.038615
					CHANNELS 3 Zrotation Yrotation Xrotation
					JOINT RightArm
					{
						OFFSET -0.096012 0.032551 -0.009143
						CHANNELS 3 Zrotation Yrotation Xrotation
						JOINT RightForeArm
						{
							OFFSET -0.253742 -0.013329 -0.021401
							CHANNELS 3 Zrotation Yrotation Xrotation
							JOINT RightHand
							{
								OFFSET -0.255298 0.007772 -0.005559
								CHANNELS 3 Zrotation Yrotation Xrotation
								End Site
								{
									OFFSET 0.000000 0.000000 0.000000
								}
							}
						}
					}
				}
			}
		}
	}
}
MOTION
Frames: 13
Frame Time: 0.050000
0.000000 0.963287 0.000000 -0.823651 -2.147695 0.617142 4.010716 0.191453 3.892993 -2.220859 0.310540 -3.951684 -5.608145 3.489883 34.220902 0.000000 0.000000 0.000000 -1.904058 -0.181353 2.901901 1.930242 -0.280599 -3.823157 -13.260849 -26.493103 29.787461 0.000000 0.000000 0.000000 2.767610 -0.040663 0.197683 -0.616061 0.703351 -23.491255 -1.447221 2.562081 28.318876 4.654745 -1.749966 -18.867424 0.000000 0.000000 0.000000 4.347721 -2.286315 0.878784 -7.714893 -15.977092 -1.224756 15.145387 -5.325327 -0.488386 0.000000 0.000000 0.000000 -3.555928 -0.587955 -0.126355 11.100281 15.468707 -1.128166 -14.960814 5.052768 -0.162480 0.000000 0.000000 0.000000 
-0.000008 0.963297 -0.000030 -0.761732 -2.128831 0.820990 3.426527 0.222237 4.016664 -1.667802 0.284554 -4.845584 -4.527886 4.902656 34.984675 0.000000 0.000000 0.000000 -1.484204 -0.195640 2.806169 1.191821 -0.239098 -4.121141 -13.586134 -26.849342 30.018948 0.000000 0.000000 0.000000 2.512452 -0.045625 0.294640 -0.246587 0.627129 -24.054195 -1.296170 3.024989 28.473292 4.834569 -1.707892 -19.575845 0.000000 0.000000 0.000000 4.198392 -2.025666 0.819028 -8.171316 -15.360465 -1.219496 12.181344 -6.499913 -0.452309 0.000000 0.000000 0.000000 -3.414349 -0.728025 -0.195650 13.149962 15.459568 -1.145836 -17.301359 6.712116 -0.383318 0.000000 0.000000 0.000000 
-0.000006 0.963118 -0.000006 -0.673314 -1.007151 1.307501 3.414958 0.122927 2.691889 -1.643988 0.261547 -4.012318 -4.839307 4.970032 35.698144 0.000000 0.000000 0.000000 -1.756906 -0.117739 1.989725 1.066163 -0.205504 -3.161058 -12.878616 -25.907699 30.027748 0.000000 0.000000 0.000000 1.759317 -0.030277 0.149455 0.543829 0.462229 -24.151104 -1.559513 1.990459 28.439997 3.692620 -0.985964 -19.808922 0.000000 0.000000 0.000000 2.460435 -1.761946 0.681421 -9.298620 -14.517638 -1.268944 13.552840 -6.890297 -0.554251 0.000000 0.000000 0.000000 -3.573718 -0.154626 0.003113 13.658020 13.316029 -1.264680 -15.830648 8.165554 -0.506676 0.000000 0.000000 0.000000 
0.000089 0.963840 -0.000073 -0.978577 -1.718556 1.319222 3.534366 0.169854 3.405807 -1.621492 0.285050 -5.116194 -3.921696 5.878237 35.905275 0.000000 0.000000 0.000000 -1.737518 -0.121981 2.072072 1.595534 -0.256435 -3.706357 -12.835901 -25.874604 30.580223 0.000000 0.000000 0.000000 2.221602 -0.053534 0.427391 0.613667 0.457017 -24.894623 -1.598150 2.597615 28.767317 3.767614 -0.976041 -20.161190 0.000000 0.000000 0.000000 -0.026296 -0.832636 0.283185 -9.425954 -15.449737 -1.283207 14.265454 -6.952781 -0.603350 0.000000 0.000000 0.000000 -2.279149 -0.542413 -0.152349 14.423916 13.021197 -1.324547 -15.349281 8.167403 -0.475273 0.000000 0.000000 0.000000 
0.000192 0.963587 -0.000100 -1.099555 -2.060418 0.966389 3.496479 0.246188 4.478561 -1.171420 0.284286 -6.256047 -4.450576 5.327712 36.186566 0.000000 0.000000 0.000000 -1.681950 -0.174017 2.669996 1.376890 -0.254111 -4.225054 -12.174773 -25.122123 30.746270 0.000000 0.000000 0.000000 2.297938 -0.036537 0.175791 0.622370 0.416795 -24.012905 -1.570612 3.065504 28.790042 3.854499 -0.952648 -20.454759 0.000000 0.000000 0.000000 -1.272111 -1.278800 0.387363 -11.981109 -14.894105 -1.361590 15.260315 -7.180114 -0.683120 0.000000 0.000000 0.000000 -0.655950 -0.292265 -0.100116 16.269036 12.727812 -1.419568 -15.531152 8.303620 -0.480155 0.000000 0.000000 0.000000 
0.000210 0.963720 -0.000095 -1.246495 -2.084209 0.546021 3.804159 0.292972 5.421261 -1.207982 0.303298 -6.915924 -5.190130 4.439373 35.827311 0.000000 0.000000 0.000000 -1.592151 -0.260325 3.626679 1.260091 -0.255834 -4.556688 -10.969663 -23.782104 29.343311 0.000000 0.000000 0.000000 2.178789 -0.055352 0.557492 0.748569 0.370140 -23.496868 -1.554382 2.723364 28.687683 4.017836 -1.056528 -21.043833 0.000000 0.000000 0.000000 -3.769665 -0.339499 -0.069705 -14.155135 -15.257397 -1.423389 16.356346 -9.145129 -0.942985 0.000000 0.000000 0.000000 1.019902 -0.384117 -0.164698 19.100987 13.173947 -1.462760 -16.671508 9.492447 -0.663269 0.000000 0.000000 0.000000 
0.000236 0.963203 -0.000303 -1.313494 -1.760979 0.729819 3.995601 0.255872 5.091611 -1.699936 0.329271 -6.995675 -4.237569 5.625562 36.200436 0.000000 0.000000 0.000000 -1.566593 -0.244365 3.397608 1.590742 -0.276344 -4.518660 -11.604761 -24.503696 29.467570 0.000000 0.000000 0.000000 2.167934 -0.041338 0.307557 0.773663 0.353265 -23.014232 -1.492824 2.388399 28.562987 3.886203 -0.946932 -21.495548 0.000000 0.000000 0.000000 -5.991960 0.237782 -0.420578 -17.229882 -16.256268 -1.432820 17.537266 -11.347359 -1.268287 0.000000 0.000000 0.000000 3.233720 -0.553366 -0.289712 22.029505 14.171183 -1.429954 -17.295949 11.238903 -0.888139 0.000000 0.000000 0.000000 
0.000269 0.963125 -0.000378 -1.342820 -1.967453 1.035227 3.902898 0.241352 4.765736 -1.925420 0.339978 -6.883919 -2.951241 6.823100 35.677106 0.000000 0.000000 0.000000 -1.452551 -0.188786 2.693451 1.769855 -0.271708 -3.880896 -12.162946 -25.228909 29.085660 0.000000 0.000000 0.000000 2.290701 -0.024248 -0.031111 0.859318 0.321707 -22.879366 -1.395452 2.633971 28.464008 3.579668 -0.615842 -22.587945 0.000000 0.000000 0.000000 -8.811401 0.846516 -0.883724 -21.516695 -16.196321 -1.526679 18.840858 -16.472828 -2.030820 0.000000 0.000000 0.000000 6.005973 -0.538724 -0.365114 25.705323 14.156699 -1.524853 -17.845045 14.165841 -1.250365 0.000000 0.000000 0.000000 
0.000276 0.963192 -0.000485 -1.290593 -1.709573 0.504162 3.649774 0.308271 5.614545 -1.823979 0.340603 -7.254244 -2.283463 7.410373 34.887300 0.000000 0.000000 0.000000 -1.349794 -0.216295 2.915158 1.784911 -0.265236 -3.487389 -13.176325 -26.343779 29.858835 0.000000 0.000000 0.000000 2.454874 -0.041626 0.281962 0.499142 0.413931 -22.699396 -1.511305 2.659225 28.345807 3.806964 -0.644384 -23.394341 0.000000 0.000000 0.000000 -11.816265 0.699654 -1.084447 -26.100651 -15.836320 -1.657829 19.851518 -21.857846 -2.882066 0.000000 0.000000 0.000000 9.297884 -0.754847 -0.558645 29.508121 13.675869 -1.710514 -18.338846 18.881048 -1.834134 0.000000 0.000000 0.000000 
0.000400 0.963001 -0.000597 -1.330813 -2.438874 0.404310 3.362859 0.341663 5.697882 -1.662051 0.340045 -7.397681 -0.945790 8.958490 36.056745 0.000000 0.000000 0.000000 -1.231743 -0.186752 2.543308 2.149812 -0.278510 -3.020166 -14.266808 -27.687968 29.876972 0.000000 0.000000 0.000000 2.754046 -0.069976 0.674715 0.210968 0.473592 -22.766833 -1.518489 3.013580 28.055460 4.299011 -0.856077 -24.375334 0.000000 0.000000 0.000000 -15.954956 0.734748 -1.448024 -29.430910 -14.014199 -2.086086 19.457644 -28.531968 -3.656529 0.000000 0.000000 0.000000 12.657268 -0.937243 -0.812592 33.245547 12.657787 -2.026630 -18.297909 26.472768 -2.713704 0.000000 0.000000 0.000000 
0.000540 0.963160 -0.000655 -1.204068 -3.007227 0.327436 3.129181 0.358927 5.624388 -1.457507 0.327627 -7.157487 -1.078444 8.878248 36.837875 0.000000 0.000000 0.000000 -1.480330 -0.161637 2.433571 2.315012 -0.282377 -2.743194 -14.010622 -27.493779 29.372311 0.000000 0.000000 0.000000 2.570199 -0.071460 0.750003 0.456876 0.395723 -22.730459 -1.404880 3.232497 28.234569 4.157985 -0.770583 -24.634053 0.000000 0.000000 0.000000 -18.290135 1.013950 -1.778207 -33.819958 -12.389879 -2.655444 16.981655 -36.089059 -3.775100 0.000000 0.000000 0.000000 14.344887 -1.070044 -0.990555 37.894369 11.272121 -2.542976 -17.119396 35.954974 -3.412265 0.000000 0.000000 0.000000 
0.000651 0.962633 -0.000605 -1.141650 -3.242644 0.508525 3.031108 0.315432 4.902161 -1.269430 0.298226 -6.367714 -1.383922 8.639841 37.456332 0.000000 0.000000 0.000000 -1.479847 -0.122517 1.987796 2.215937 -0.262363 -2.162363 -13.828070 -27.398426 28.523777 0.000000 0.000000 0.000000 2.489743 -0.074291 0.790279 0.454132 0.393962 -22.799666 -1.408892 3.203791 28.077434 4.164095 -0.702059 -25.590506 0.000000 0.000000 0.000000 -19.180256 0.867261 -1.742947 -38.532146 -10.300725 -3.478441 11.930280 -43.966136 -2.490334 0.000000 0.000000 0.000000 15.409121 -1.640987 -1.388065 43.351684 8.987358 -3.446099 -13.321712 46.020374 -2.808858 0.000000 0.000000 0.000000 
0.000701 0.962512 -0.000754 -1.159555 -3.236441 0.335594 2.813672 0.319647 4.798200 -0.972093 0.269511 -5.986316 -0.899531 9.189159 37.709708 0.000000 0.000000 0.000000 -1.211103 -0.113111 1.721997 1.972274 -0.229372 -1.524952 -14.461144 -28.109710 28.853994 0.000000 0.000000 0.000000 2.629560 -0.103647 1.233730 0.311093 0.431557 -22.850039 -1.474733 3.435298 27.717060 4.300744 -0.620153 -26.673209 0.000000 0.000000 0.000000 -19.607223 0.373646 -1.591355 -42.809052 -8.764578 -4.193540 4.386061 -51.504542 0.751111 0.000000 0.000000 0.000000 16.763916 -2.162109 -1.719035 47.776192 6.294732 -4.623655 -6.265159 54.309362 0.352569 0.000000 0.000000 0.000000 
